{"title":"The.Matrix.Revolutions.2003.BRRip.480p.x264.AAC-VYTO [P2PDL]","uid":12192679,"size":503370428,"categoryP":"video","categoryS":"movies","magnet":"?xt=urn:btih:0bf83d8d67987c66d72517f69c28321b5de64e43&amp;dn=The.Matrix.Revolutions.2003.BRRip.480p.x264.AAC-VYTO+%5BP2PDL%5D&amp;tr=udp%3A%2F%2Ftracker.openbittorrent.com%3A80&amp;tr=udp%3A%2F%2Fopen.demonii.com%3A1337&amp;tr=udp%3A%2F%2Ftracker.coppersurfer.tk%3A6969&amp;tr=udp%3A%2F%2Fexodus.desync.com%3A6969","seeders":6,"leechers":2,"uploader":"ValidusVyto","files":7,"time":1438689038,"description":"____    ____ ____    ____ .___________.  ______   \n     /   /      /   / |           | /  __    \n    /   /      /   /  `---|  |----`|  |  |  | \n        /     _    _/       |  |     |  |  |  | \n       /        |  |         |  |     |  `--'  | \n    __/         |__|         |__|      ______/  \n                                                  \nPresenting Small Encodes with quality for years!\n                                                                                                   \n                                                                                                   \n\nThe.Matrix.Revolutions.2003.BRRip.480p.x264.AAC-VYTO\n\n\nGenre: Action, Sci-Fi  &lt;a href=&quot;\nhttp://www.imdb.com/title/tt0242653/&quot; rel=&quot;nofollow&quot; target=&quot;_NEW&quot;&gt;\nhttp://www.imdb.com/title/tt0242653/&lt;/a&gt;\n\n\nGeneral\nFormat                         : MPEG-4\nFile size                      : 476 MiB\nDuration                       : 2h 9mn\nOverall bit rate               : 515 Kbps\n\nVideo\nFormat                         : AVC\nBit rate                       : 480 Kbps\nWidth                          : 720 pixels\nHeight                         : 304 pixels\nDisplay aspect ratio           : 2.35:1\nFrame rate mode                : Constant\nFrame rate                     : 23.976 fps\nBit depth                      : 8 bits\nStream size                    : 444 MiB (93%)\nWriting library                : x264 core 146 r2538 121396c\n\nAudio\nFormat                         : AAC\nBit rate mode                  : Variable\nBit rate                       : 32.0 Kbps\nChannel(s)                     : 2 channels\nChannel positions              : Front: L R\nSampling rate                  : 48.0 KHz\nStream size                    : 29.6 MiB (6%)\nLanguage                       : English\n\nSubtitle                       : Yes\nSource                     \t   : 720p.BluRay.x264-CtrlHD\t\t\t\n\n\nScreenshots:\n &lt;a href=&quot;\nhttps://ititli.com/wS&quot; rel=&quot;nofollow&quot; target=&quot;_NEW&quot;&gt;\nhttps://ititli.com/wS&lt;/a&gt; &lt;a href=&quot;\nhttps://ititli.com/wZ&quot; rel=&quot;nofollow&quot; target=&quot;_NEW&quot;&gt;\nhttps://ititli.com/wZ&lt;/a&gt; &lt;a href=&quot;\nhttps://ititli.com/wc&quot; rel=&quot;nofollow&quot; target=&quot;_NEW&quot;&gt;\nhttps://ititli.com/wc&lt;/a&gt; &lt;a href=&quot;\nhttps://ititli.com/wi&quot; rel=&quot;nofollow&quot; target=&quot;_NEW&quot;&gt;\nhttps://ititli.com/wi&lt;/a&gt; &lt;a href=&quot;\nhttps://ititli.com/wp&quot; rel=&quot;nofollow&quot; target=&quot;_NEW&quot;&gt;\nhttps://ititli.com/wp&lt;/a&gt; &lt;a href=&quot;\nhttps://ititli.com/wD&quot; rel=&quot;nofollow&quot; target=&quot;_NEW&quot;&gt;\nhttps://ititli.com/wD&lt;/a&gt; &lt;a href=&quot;\nhttps://ititli.com/wa&quot; rel=&quot;nofollow&quot; target=&quot;_NEW&quot;&gt;\nhttps://ititli.com/wa&lt;/a&gt; &lt;a href=&quot;\nhttps://ititli.com/wb&quot; rel=&quot;nofollow&quot; target=&quot;_NEW&quot;&gt;\nhttps://ititli.com/wb&lt;/a&gt; &lt;a href=&quot;\nhttps://ititli.com/wz&quot; rel=&quot;nofollow&quot; target=&quot;_NEW&quot;&gt;\nhttps://ititli.com/wz&lt;/a&gt; &lt;a href=&quot;\nhttps://ititli.com/wI&quot; rel=&quot;nofollow&quot; target=&quot;_NEW&quot;&gt;\nhttps://ititli.com/wI&lt;/a&gt; &lt;a href=&quot;\nhttps://ititli.com/wO&quot; rel=&quot;nofollow&quot; target=&quot;_NEW&quot;&gt;\nhttps://ititli.com/wO&lt;/a&gt; &lt;a href=&quot;\nhttps://ititli.com/29&quot; rel=&quot;nofollow&quot; target=&quot;_NEW&quot;&gt;\nhttps://ititli.com/29&lt;/a&gt;\n\n----------------------------------------------------------------------------------------------------\n\n\nEncoder Notes: Looking For Early Access To Anything You Can Provide DVDScr, R5, DVDR, BluRay, Direct\nAudio, Music Releases and Seedboxes. If You Got anything to offer please contact us.\n\nSupport us by donating BC - 1FgwdzPsd1y25Gea8wP1qni35uGCtmkRCD","torrent":{"xt":"urn:btih:0bf83d8d67987c66d72517f69c28321b5de64e43","amp;dn":"The.Matrix.Revolutions.2003.BRRip.480p.x264.AAC-VYTO+%5BP2PDL%5D","amp;tr":["udp%3A%2F%2Ftracker.openbittorrent.com%3A80","udp%3A%2F%2Fopen.demonii.com%3A1337","udp%3A%2F%2Ftracker.coppersurfer.tk%3A6969","udp%3A%2F%2Fexodus.desync.com%3A6969"],"infoHash":"0bf83d8d67987c66d72517f69c28321b5de64e43","infoHashBuffer":{"type":"Buffer","data":[11,248,61,141,103,152,124,102,215,37,23,246,156,40,50,27,93,230,78,67]},"announce":[],"urlList":[]}}